<?xml version="1.0" encoding="UTF-8" standalone="no"?><!DOCTYPE svg PUBLIC "-//W3C//DTD SVG 1.1//EN" "http://www.w3.org/Graphics/SVG/1.1/DTD/svg11.dtd"><svg width="100%" height="100%" viewBox="0 0 236 48" version="1.1" xmlns="http://www.w3.org/2000/svg" xmlns:xlink="http://www.w3.org/1999/xlink" xml:space="preserve" xmlns:serif="http://www.serif.com/" style="fill-rule:evenodd;clip-rule:evenodd;stroke-linejoin:round;stroke-miterlimit:1.41421;"><rect id="mesh-kit" x="0" y="0" width="235.2" height="48" style="fill:none;"/><clipPath id="_clip1"><rect x="0" y="0" width="235.2" height="48"/></clipPath><g clip-path="url(#_clip1)"><rect id="gradient" x="0" y="0" width="235.2" height="48" style="fill:url(#_Linear2);"/><g><path d="M103.653,20.244l-3.162,0l-1.68,5.052l-1.686,-5.052l-3.162,0l0,8.4l2.28,0l0,-5.256l1.35,4.476l2.43,0l1.35,-4.476l0,5.256l2.28,0l0,-8.4Z" style="fill:#fff;fill-rule:nonzero;"/><path d="M107.595,22.536c-1.83,0 -3.09,1.302 -3.09,3.186c0,1.842 1.272,3.078 3.174,3.078c1.176,0 2.112,-0.408 2.688,-1.032l-1.464,-1.224c-0.324,0.318 -0.738,0.48 -1.122,0.48c-0.564,0 -0.924,-0.24 -1.068,-0.72l3.882,0c0.024,-0.12 0.042,-0.432 0.042,-0.636c-0.006,-1.86 -1.242,-3.132 -3.042,-3.132Zm0.012,1.794c0.444,0 0.744,0.222 0.9,0.684l-1.788,0c0.138,-0.462 0.432,-0.684 0.888,-0.684Z" style="fill:#fff;fill-rule:nonzero;"/><path d="M116.451,22.998c-1.116,-0.366 -1.638,-0.462 -2.616,-0.462c-1.662,0 -2.616,0.72 -2.616,2.028c0,1.104 0.66,1.692 2.13,1.92l0.234,0.036c0.66,0.102 0.906,0.138 0.906,0.33c0,0.174 -0.15,0.252 -0.618,0.252c-0.768,0 -1.494,-0.18 -2.154,-0.54l-0.684,1.668c0.6,0.36 1.644,0.57 2.826,0.57c1.74,0 2.766,-0.774 2.766,-2.148c0,-0.99 -0.63,-1.614 -1.896,-1.824l-0.36,-0.06c-0.54,-0.09 -0.948,-0.102 -0.948,-0.318c0,-0.138 0.102,-0.222 0.516,-0.222c0.546,0 1.326,0.186 2.004,0.438l0.51,-1.668Z" style="fill:#fff;fill-rule:nonzero;"/><path d="M119.547,19.992l-2.136,0l0,8.652l2.136,0l0,-3.186c0,-0.654 0.33,-0.924 0.744,-0.924c0.468,0 0.75,0.318 0.75,0.912l0,3.198l2.136,0l0,-3.87c0,-1.368 -0.894,-2.238 -2.124,-2.238c-0.672,0 -1.17,0.21 -1.506,0.63l0,-3.174Z" style="fill:#fff;fill-rule:nonzero;"/><path d="M129.567,28.644l2.802,0l-3.312,-4.302l3.042,-4.098l-2.772,0l-2.118,3.156l-0.66,0l0,-3.156l-2.28,0l0,8.4l2.28,0l0,-3.216l0.648,0l2.37,3.216Z" style="fill:#fff;fill-rule:nonzero;"/><path d="M134.865,22.698l-2.136,0l0,5.946l2.136,0l0,-5.946Zm-1.074,-2.964c-0.69,0 -1.224,0.534 -1.224,1.224c0,0.69 0.534,1.224 1.224,1.224c0.69,0 1.224,-0.534 1.224,-1.224c0,-0.69 -0.534,-1.224 -1.224,-1.224Z" style="fill:#fff;fill-rule:nonzero;"/><path d="M140.691,22.698l-1.932,0l0,-1.704l-2.136,0l0,1.704l-1.08,0l0,1.884l1.08,0l0,1.722c0,1.458 0.69,2.496 2.382,2.496c1.044,0 1.638,-0.276 2.232,-0.69l-0.714,-1.656c-0.276,0.156 -0.636,0.36 -0.966,0.36c-0.462,0 -0.798,-0.198 -0.798,-0.84l0,-1.392l1.932,0l0,-1.884Z" style="fill:#fff;fill-rule:nonzero;"/></g></g><defs><linearGradient id="_Linear2" x1="0" y1="0" x2="1" y2="0" gradientUnits="userSpaceOnUse" gradientTransform="matrix(2.93915e-15,48,-48,2.93915e-15,117.6,-3.10862e-15)"><stop offset="0" style="stop-color:#e65100;stop-opacity:1"/><stop offset="1" style="stop-color:#d84314;stop-opacity:1"/></linearGradient></defs></svg>